<?xml version="1.0" encoding="UTF-8" standalone="no"?>
<svg
   xmlns:dc="http://purl.org/dc/elements/1.1/"
   xmlns:cc="http://creativecommons.org/ns#"
   xmlns:rdf="http://www.w3.org/1999/02/22-rdf-syntax-ns#"
   xmlns:svg="http://www.w3.org/2000/svg"
   xmlns="http://www.w3.org/2000/svg"
   xmlns:sodipodi="http://sodipodi.sourceforge.net/DTD/sodipodi-0.dtd"
   xmlns:inkscape="http://www.inkscape.org/namespaces/inkscape"
   inkscape:export-ydpi="96"
   inkscape:export-xdpi="96"
   inkscape:export-filename="/home/op/fav.png"
   inkscape:version="1.0 (1.0+r73)"
   sodipodi:docname="fav.svg"
   id="svg8"
   version="1.1"
   viewBox="0 0 16 16"
   height="16mm"
   width="16mm">
  <defs
     id="defs2" />
  <sodipodi:namedview
     inkscape:window-maximized="1"
     inkscape:window-y="30"
     inkscape:window-x="0"
     inkscape:window-height="712"
     inkscape:window-width="1366"
     showgrid="false"
     inkscape:document-rotation="0"
     inkscape:current-layer="layer1"
     inkscape:document-units="mm"
     inkscape:cy="42.779388"
     inkscape:cx="32.878073"
     inkscape:zoom="5.841778"
     inkscape:pageshadow="2"
     inkscape:pageopacity="0.0"
     borderopacity="1.0"
     bordercolor="#666666"
     pagecolor="#ffffff"
     id="base" />
  <metadata
     id="metadata5">
    <rdf:RDF>
      <cc:Work
         rdf:about="">
        <dc:format>image/svg+xml</dc:format>
        <dc:type
           rdf:resource="http://purl.org/dc/dcmitype/StillImage" />
        <dc:title></dc:title>
      </cc:Work>
    </rdf:RDF>
  </metadata>
  <g
     style="display:none"
     sodipodi:insensitive="true"
     inkscape:label="Lapis 2"
     id="layer2"
     inkscape:groupmode="layer">
    <path
       style="color:#000000;font-style:normal;font-variant:normal;font-weight:normal;font-stretch:normal;font-size:medium;line-height:normal;font-family:sans-serif;font-variant-ligatures:normal;font-variant-position:normal;font-variant-caps:normal;font-variant-numeric:normal;font-variant-alternates:normal;font-variant-east-asian:normal;font-feature-settings:normal;font-variation-settings:normal;text-indent:0;text-align:start;text-decoration:none;text-decoration-line:none;text-decoration-style:solid;text-decoration-color:#000000;letter-spacing:normal;word-spacing:normal;text-transform:none;writing-mode:lr-tb;direction:ltr;text-orientation:mixed;dominant-baseline:auto;baseline-shift:baseline;text-anchor:start;white-space:normal;shape-padding:0;shape-margin:0;inline-size:0;clip-rule:nonzero;display:inline;overflow:visible;visibility:visible;isolation:auto;mix-blend-mode:normal;color-interpolation:sRGB;color-interpolation-filters:linearRGB;solid-color:#000000;solid-opacity:1;vector-effect:none;fill:#cccccc;fill-opacity:1;fill-rule:nonzero;stroke:none;stroke-width:1.1047;stroke-linecap:round;stroke-linejoin:round;stroke-miterlimit:4;stroke-dasharray:none;stroke-dashoffset:0;stroke-opacity:1;paint-order:stroke markers fill;color-rendering:auto;image-rendering:auto;shape-rendering:auto;text-rendering:auto;enable-background:accumulate;stop-color:#000000"
       d="m 13.408492,2.1021801 c -3.219749,-2.95274004 -8.229328,-2.77365004 -11.228164,0.40323 -2.9988375,3.17686 -2.89111499,8.1906199 0.242208,11.2349399 3.1333301,3.04428 8.147155,3.00793 11.236292,-0.0811 a 0.55235033,0.55235033 0 0 0 -7e-6,-0.7821 0.55235033,0.55235033 0 0 0 -0.780746,8.73e-4 C 10.207117,15.54896 5.902983,15.57919 3.193819,12.94681 0.48464602,10.31465 0.38984502,6.0107402 2.982722,3.2639101 5.5756101,0.51709009 9.8790353,0.36177007 12.662927,2.91482 a 0.55235033,0.55235033 0 0 0 0.779394,-0.0325 0.55235033,0.55235033 0 0 0 -0.03384,-0.78075 z"
       id="path920" />
  </g>
  <g
     id="layer1"
     inkscape:groupmode="layer"
     inkscape:label="Lapis 1">
    <g
       transform="matrix(1.3672613,0,0,1.3672613,-36.650911,-291.9475)"
       id="g943">
      <g
         id="g913"
         transform="matrix(0.81545093,0,0,0.81545093,16.1512,42.38602)">
        <rect
           ry="0.30883491"
           y="211.43098"
           x="15.61895"
           height="11.23483"
           width="8.9809294"
           id="rect909"
           style="opacity:1;fill:#364e59;stroke-width:1;stroke-linecap:round;stroke-linejoin:round;paint-order:stroke markers fill" />
        <path
           d="m 17.284539,212.74481 c -0.03947,0 -0.07859,0.008 -0.115755,0.0227 -0.07692,0.031 -0.138061,0.0917 -0.169499,0.16846 -0.01334,0.0322 -0.01875,0.0665 -0.02067,0.10077 -3.19e-4,0.006 -0.0031,0.0107 -0.0031,0.0165 v 5.1e-4 2.33991 5.64927 c 0,0.17109 0.137931,0.30903 0.309025,0.30903 0.171094,-1e-5 0.308508,-0.13794 0.308508,-0.30903 v -4.90461 l 5.121652,5.12217 10e-4,0.001 c 0.0288,0.0289 0.0634,0.0515 0.101803,0.0672 0.0361,0.0147 0.0753,0.0233 0.116788,0.0233 0.0395,-1e-5 0.0786,-0.008 0.115756,-0.0227 0.0769,-0.031 0.138058,-0.0917 0.169498,-0.16847 0.0133,-0.0322 0.01867,-0.0665 0.02067,-0.10077 3.1e-4,-0.006 0.0031,-0.0107 0.0031,-0.0165 v -5.2e-4 -2.33991 -5.64927 c 0,-0.17109 -0.137926,-0.30902 -0.309026,-0.30902 -0.171089,0 -0.308508,0.13793 -0.308508,0.30902 v 4.90461 l -5.121651,-5.12216 -0.001,-0.001 c -0.0288,-0.0289 -0.06337,-0.0515 -0.101802,-0.0672 -0.03609,-0.0147 -0.07529,-0.0232 -0.116789,-0.0232 z m 0.308508,1.05368 5.032768,5.03328 v 1.46658 l -5.032768,-5.03328 z"
           style="opacity:1;fill:#cccccc;stroke-width:1;stroke-linecap:round;stroke-linejoin:round;paint-order:stroke markers fill"
           id="rect899" />
      </g>
      <path
         id="rect922"
         style="fill:#cccccc;stroke:none;stroke-width:0.333792;stroke-linecap:round;stroke-linejoin:round;paint-order:stroke markers fill"
         d="m 30.86751,217.64838 c -0.09371,0.0937 -0.09371,0.24457 0,0.33829 l 2.597793,2.59779 c 0.0937,0.0937 0.461474,0.10162 0.461474,0.10162 0,0 -0.02947,-0.3462 -0.123194,-0.43991 l -2.597793,-2.59779 c -0.0937,-0.0937 -0.244579,-0.0937 -0.33828,0 z"
         sodipodi:nodetypes="ssscsss" />
    </g>
  </g>
</svg>
