<?xml version="1.0" encoding="UTF-8" standalone="no"?>
<svg
   xmlns:dc="http://purl.org/dc/elements/1.1/"
   xmlns:cc="http://creativecommons.org/ns#"
   xmlns:rdf="http://www.w3.org/1999/02/22-rdf-syntax-ns#"
   xmlns:svg="http://www.w3.org/2000/svg"
   xmlns="http://www.w3.org/2000/svg"
   xmlns:sodipodi="http://sodipodi.sourceforge.net/DTD/sodipodi-0.dtd"
   xmlns:inkscape="http://www.inkscape.org/namespaces/inkscape"
   inkscape:version="1.0 (1.0+r73+1)"
   sodipodi:docname="logo.svg"
   id="svg12"
   viewbox="0 0 949 256"
   height="262.00003"
   width="1713.6223"
   version="1.1">
  <metadata
     id="metadata18">
    <rdf:RDF>
      <cc:Work
         rdf:about="">
        <dc:format>image/svg+xml</dc:format>
        <dc:type
           rdf:resource="http://purl.org/dc/dcmitype/StillImage" />
      </cc:Work>
    </rdf:RDF>
  </metadata>
  <defs
     id="defs16" />
  <sodipodi:namedview
     inkscape:current-layer="svg12"
     inkscape:window-maximized="1"
     inkscape:window-y="30"
     inkscape:window-x="0"
     inkscape:cy="227.51167"
     inkscape:cx="454.64676"
     inkscape:zoom="0.53846154"
     showgrid="false"
     id="namedview14"
     inkscape:window-height="646"
     inkscape:window-width="1366"
     inkscape:pageshadow="2"
     inkscape:pageopacity="0"
     guidetolerance="10"
     gridtolerance="10"
     objecttolerance="10"
     borderopacity="1"
     bordercolor="#666666"
     pagecolor="#ffffff"
     inkscape:document-rotation="0" />
  <g
     style="stroke-width:0.334097"
     id="g943"
     transform="matrix(27.943167,0,0,27.943167,-807.21347,-5999.1256)">
    <g
       style="stroke-width:0.334097"
       transform="matrix(0.81545093,0,0,0.81545093,16.1512,42.38602)"
       id="g913">
      <rect
         style="opacity:1;fill:#364e59;stroke-width:0.334097;stroke-linecap:round;stroke-linejoin:round;paint-order:stroke markers fill"
         id="rect909"
         width="8.9809294"
         height="11.23483"
         x="15.61895"
         y="211.43098"
         ry="0.30883491" />
      <path
         id="rect899"
         style="opacity:1;fill:#cccccc;stroke-width:0.334097;stroke-linecap:round;stroke-linejoin:round;paint-order:stroke markers fill"
         d="m 17.284539,212.74481 c -0.03947,0 -0.07859,0.008 -0.115755,0.0227 -0.07692,0.031 -0.138061,0.0917 -0.169499,0.16846 -0.01334,0.0322 -0.01875,0.0665 -0.02067,0.10077 -3.19e-4,0.006 -0.0031,0.0107 -0.0031,0.0165 v 5.1e-4 2.33991 5.64927 c 0,0.17109 0.137931,0.30903 0.309025,0.30903 0.171094,-1e-5 0.308508,-0.13794 0.308508,-0.30903 v -4.90461 l 5.121652,5.12217 10e-4,0.001 c 0.0288,0.0289 0.0634,0.0515 0.101803,0.0672 0.0361,0.0147 0.0753,0.0233 0.116788,0.0233 0.0395,-1e-5 0.0786,-0.008 0.115756,-0.0227 0.0769,-0.031 0.138058,-0.0917 0.169498,-0.16847 0.0133,-0.0322 0.01867,-0.0665 0.02067,-0.10077 3.1e-4,-0.006 0.0031,-0.0107 0.0031,-0.0165 v -5.2e-4 -2.33991 -5.64927 c 0,-0.17109 -0.137926,-0.30902 -0.309026,-0.30902 -0.171089,0 -0.308508,0.13793 -0.308508,0.30902 v 4.90461 l -5.121651,-5.12216 -0.001,-0.001 c -0.0288,-0.0289 -0.06337,-0.0515 -0.101802,-0.0672 -0.03609,-0.0147 -0.07529,-0.0232 -0.116789,-0.0232 z m 0.308508,1.05368 5.032768,5.03328 v 1.46658 l -5.032768,-5.03328 z" />
    </g>
    <path
       sodipodi:nodetypes="ssscsss"
       d="m 30.86751,217.64838 c -0.09371,0.0937 -0.09371,0.24457 0,0.33829 l 2.597793,2.59779 c 0.0937,0.0937 0.461474,0.10162 0.461474,0.10162 0,0 -0.02947,-0.3462 -0.123194,-0.43991 l -2.597793,-2.59779 c -0.0937,-0.0937 -0.244579,-0.0937 -0.33828,0 z"
       style="fill:#cccccc;stroke:none;stroke-width:0.11152;stroke-linecap:round;stroke-linejoin:round;paint-order:stroke markers fill"
       id="rect922" />
  </g>
  <g
     transform="matrix(2.1464697,0,0,2.1464697,-252.89276,-161.4598)"
     aria-label="Catatan Nurkholis"
     id="text1792"
     style="font-size:89.4297px;line-height:1;font-family:'Source Sans Pro';-inkscape-font-specification:'Source Sans Pro, Normal';text-align:center;letter-spacing:0px;word-spacing:0px;text-anchor:middle;fill:#414048;fill-opacity:1;stroke-width:2.06908">
    <path
       d="m 327.50266,100.79267 c 0,-6.886087 -5.45521,-10.194986 -13.2356,-10.194986 -30.13781,0 -82.99076,42.747396 -81.20217,74.047796 0.53658,10.91042 8.85355,15.11362 18.42252,15.29248 19.58511,0.44715 53.30011,-22.268 69.03973,-37.64991 0.35772,-0.17886 -0.626,-0.62601 -0.71543,-0.53658 -21.19484,17.17051 -48.56033,32.28413 -65.37312,32.28413 -6.88608,0 -12.43073,-2.05689 -13.05673,-9.56898 -1.96746,-24.95089 46.23515,-71.633193 73.7795,-71.633193 5.54464,0 9.0324,2.325172 9.0324,6.349509 0,7.243804 -14.12989,15.203054 -20.21111,15.203054 -0.53658,-0.71544 2.14631,-4.02434 1.96745,-4.02434 -0.89429,0 -5.09749,3.93491 -5.09749,6.08122 0,2.77232 1.43087,5.7235 3.75605,5.7235 8.76411,0 22.894,-12.43073 22.894,-21.3737 z"
       style="font-style:normal;font-variant:normal;font-weight:normal;font-stretch:normal;font-family:Blacksword;-inkscape-font-specification:Blacksword;fill:#414048;fill-opacity:1;stroke-width:2.06908"
       id="path836" />
    <path
       d="m 328.5842,156.5968 c -0.35772,1.34145 -0.71543,2.41461 -0.71543,3.3089 0,1.60974 1.69916,3.48776 2.95118,4.2032 0.626,0.35772 1.07315,0.53658 1.5203,0.53658 5.36578,0 19.94282,-14.93476 27.72321,-23.43058 0.26829,-0.26829 -0.17886,-0.98373 -0.62601,-0.53658 -5.54464,5.18692 -18.33309,17.43879 -23.96716,19.04852 0,-0.71543 0.35772,-1.78859 0.8943,-3.04061 2.68289,-5.7235 10.73156,-15.47133 11.17871,-14.57704 0.35772,-1.07315 -2.68289,-5.99179 -4.47148,-5.09749 -2.23575,1.25202 -8.04868,6.88609 -9.65841,8.31696 -4.65035,3.93491 -17.17051,12.96731 -20.12169,13.95104 -0.26829,0.0894 -0.44714,0.0894 -0.626,0 -0.80487,-0.44715 5.90236,-11.7153 14.39818,-18.9591 5.81293,-4.91863 12.3413,-8.67468 17.52822,-8.94297 2.68289,-0.17886 4.38206,1.16258 4.38206,3.84548 0,1.34144 -0.53658,2.4146 -0.98373,3.21947 -0.0894,0.0894 0.0894,0.17885 0.26829,0.0894 0.89429,-1.16258 1.69916,-2.68289 1.69916,-4.20319 0,-4.2032 -4.47148,-5.63407 -7.86981,-5.63407 -16.45507,0 -36.93447,19.94282 -36.93447,29.69066 0,1.78859 2.32517,5.18692 3.93491,5.99179 0.17886,0.0894 0.62601,0.26829 0.80487,0.26829 3.75604,0 21.19483,-15.02419 23.87773,-17.70708 -1.69917,2.23574 -4.11377,6.34951 -5.18693,9.6584 z"
       style="font-style:normal;font-variant:normal;font-weight:normal;font-stretch:normal;font-family:Blacksword;-inkscape-font-specification:Blacksword;fill:#414048;fill-opacity:1;stroke-width:2.06908"
       id="path838" />
    <path
       d="m 375.4272,113.84941 c -10.01612,1.16258 -19.85339,3.66661 -19.49567,7.69095 0.26829,2.86175 3.3089,4.56092 4.73977,4.56092 -2.32517,-1.34145 2.95118,-5.63408 11.447,-7.33324 -3.3089,4.38206 -5.90236,8.31696 -8.31696,11.98358 -10.99985,16.99164 -15.02419,25.75576 -15.02419,28.43865 0,0.98372 0.17886,1.16258 0.26829,1.34144 0.53658,1.34145 2.50403,3.21947 3.21947,3.57719 0.80487,0.44715 1.69916,0.80487 2.86175,0.35772 5.36578,-1.96745 20.92655,-18.24366 25.30861,-23.25172 0.26829,-0.26829 -0.0894,-0.98373 -0.62601,-0.53658 -5.27635,4.8292 -20.12169,19.40624 -23.96716,18.95909 2.14631,-5.7235 8.85354,-17.08107 16.63392,-28.88579 3.57719,-5.27635 6.52837,-9.74784 9.83727,-13.8616 14.93476,-2.23575 31.3004,-2.32518 49.00748,-0.80487 1.07315,0.0894 0.71543,-0.0894 0,-0.26829 -12.78845,-2.68289 -31.65812,-3.39833 -46.0563,-2.68289 3.93491,-5.09749 9.21126,-12.25187 12.07301,-10.91042 1.69916,0.98372 -1.87802,-4.2032 -6.88609,-3.934911 -0.80486,0 -1.96745,0.715437 -3.3089,1.788591 -2.23574,1.7886 -4.73977,4.65035 -11.71529,13.77218 z"
       style="font-style:normal;font-variant:normal;font-weight:normal;font-stretch:normal;font-family:Blacksword;-inkscape-font-specification:Blacksword;fill:#414048;fill-opacity:1;stroke-width:2.06908"
       id="path840" />
    <path
       d="m 391.2898,156.5968 c -0.35772,1.34145 -0.71544,2.41461 -0.71544,3.3089 0,1.60974 1.69917,3.48776 2.95118,4.2032 0.62601,0.35772 1.07316,0.53658 1.52031,0.53658 5.36578,0 19.94282,-14.93476 27.72321,-23.43058 0.26828,-0.26829 -0.17886,-0.98373 -0.62601,-0.53658 -5.54464,5.18692 -18.33309,17.43879 -23.96716,19.04852 0,-0.71543 0.35772,-1.78859 0.89429,-3.04061 2.6829,-5.7235 10.73157,-15.47133 11.17872,-14.57704 0.35772,-1.07315 -2.68289,-5.99179 -4.47149,-5.09749 -2.23574,1.25202 -8.04867,6.88609 -9.65841,8.31696 -4.65034,3.93491 -17.1705,12.96731 -20.12168,13.95104 -0.26829,0.0894 -0.44715,0.0894 -0.62601,0 -0.80486,-0.44715 5.90236,-11.7153 14.39819,-18.9591 5.81293,-4.91863 12.34129,-8.67468 17.52822,-8.94297 2.68289,-0.17886 4.38205,1.16258 4.38205,3.84548 0,1.34144 -0.53658,2.4146 -0.98372,3.21947 -0.0894,0.0894 0.0894,0.17885 0.26828,0.0894 0.8943,-1.16258 1.69917,-2.68289 1.69917,-4.20319 0,-4.2032 -4.47149,-5.63407 -7.86981,-5.63407 -16.45507,0 -36.93447,19.94282 -36.93447,29.69066 0,1.78859 2.32517,5.18692 3.9349,5.99179 0.17886,0.0894 0.62601,0.26829 0.80487,0.26829 3.75605,0 21.19484,-15.02419 23.87773,-17.70708 -1.69916,2.23574 -4.11376,6.34951 -5.18692,9.6584 z"
       style="font-style:normal;font-variant:normal;font-weight:normal;font-stretch:normal;font-family:Blacksword;-inkscape-font-specification:Blacksword;fill:#414048;fill-opacity:1;stroke-width:2.06908"
       id="path842" />
    <path
       d="m 438.13279,113.84941 c -10.01612,1.16258 -19.85339,3.66661 -19.49567,7.69095 0.26829,2.86175 3.3089,4.56092 4.73977,4.56092 -2.32517,-1.34145 2.95118,-5.63408 11.447,-7.33324 -3.3089,4.38206 -5.90236,8.31696 -8.31696,11.98358 -10.99985,16.99164 -15.02419,25.75576 -15.02419,28.43865 0,0.98372 0.17886,1.16258 0.26829,1.34144 0.53658,1.34145 2.50403,3.21947 3.21947,3.57719 0.80487,0.44715 1.69916,0.80487 2.86175,0.35772 5.36578,-1.96745 20.92655,-18.24366 25.30861,-23.25172 0.26828,-0.26829 -0.0894,-0.98373 -0.62601,-0.53658 -5.27636,4.8292 -20.12169,19.40624 -23.96716,18.95909 2.14631,-5.7235 8.85354,-17.08107 16.63392,-28.88579 3.57719,-5.27635 6.52837,-9.74784 9.83727,-13.8616 14.93476,-2.23575 31.30039,-2.32518 49.00748,-0.80487 1.07315,0.0894 0.71543,-0.0894 0,-0.26829 -12.78845,-2.68289 -31.65812,-3.39833 -46.0563,-2.68289 3.93491,-5.09749 9.21126,-12.25187 12.07301,-10.91042 1.69916,0.98372 -1.87802,-4.2032 -6.88609,-3.934911 -0.80487,0 -1.96745,0.715437 -3.3089,1.788591 -2.23574,1.7886 -4.73977,4.65035 -11.71529,13.77218 z"
       style="font-style:normal;font-variant:normal;font-weight:normal;font-stretch:normal;font-family:Blacksword;-inkscape-font-specification:Blacksword;fill:#414048;fill-opacity:1;stroke-width:2.06908"
       id="path844" />
    <path
       d="m 453.99538,156.5968 c -0.35772,1.34145 -0.71544,2.41461 -0.71544,3.3089 0,1.60974 1.69917,3.48776 2.95118,4.2032 0.62601,0.35772 1.07316,0.53658 1.52031,0.53658 5.36578,0 19.94282,-14.93476 27.72321,-23.43058 0.26829,-0.26829 -0.17886,-0.98373 -0.62601,-0.53658 -5.54464,5.18692 -18.33309,17.43879 -23.96716,19.04852 0,-0.71543 0.35772,-1.78859 0.8943,-3.04061 2.68289,-5.7235 10.73156,-15.47133 11.17871,-14.57704 0.35772,-1.07315 -2.68289,-5.99179 -4.47149,-5.09749 -2.23574,1.25202 -8.04867,6.88609 -9.6584,8.31696 -4.65035,3.93491 -17.17051,12.96731 -20.12169,13.95104 -0.26829,0.0894 -0.44715,0.0894 -0.62601,0 -0.80486,-0.44715 5.90237,-11.7153 14.39819,-18.9591 5.81293,-4.91863 12.3413,-8.67468 17.52822,-8.94297 2.68289,-0.17886 4.38205,1.16258 4.38205,3.84548 0,1.34144 -0.53657,2.4146 -0.98372,3.21947 -0.0894,0.0894 0.0894,0.17885 0.26829,0.0894 0.89429,-1.16258 1.69916,-2.68289 1.69916,-4.20319 0,-4.2032 -4.47148,-5.63407 -7.86981,-5.63407 -16.45507,0 -36.93447,19.94282 -36.93447,29.69066 0,1.78859 2.32517,5.18692 3.93491,5.99179 0.17886,0.0894 0.626,0.26829 0.80486,0.26829 3.75605,0 21.19484,-15.02419 23.87773,-17.70708 -1.69916,2.23574 -4.11376,6.34951 -5.18692,9.6584 z"
       style="font-style:normal;font-variant:normal;font-weight:normal;font-stretch:normal;font-family:Blacksword;-inkscape-font-specification:Blacksword;fill:#414048;fill-opacity:1;stroke-width:2.06908"
       id="path846" />
    <path
       d="m 519.43977,134.95482 c 1.16258,-0.98373 -1.69917,-5.81293 -3.84548,-5.81293 -3.04061,0 -18.78024,12.07301 -28.79636,21.91027 -1.87803,1.7886 -3.57719,3.57719 -4.56092,5.00807 1.34145,-2.50404 5.99179,-9.12183 10.19499,-14.66647 2.68289,-3.48776 5.99179,-7.24381 7.15437,-7.15438 0.71544,0.0894 1.07316,0.53658 1.07316,0.17886 0,-2.23574 -3.39833,-5.7235 -5.63407,-5.7235 -0.26829,0 -0.80487,0.0894 -1.16259,0.44715 -2.32517,1.78859 -6.26008,6.52836 -9.47955,11.08928 -2.95118,4.11377 -6.34951,9.39012 -8.49582,13.59331 -2.23574,4.11377 -2.68289,6.52837 -2.50403,7.15438 0.71544,2.59346 2.86175,5.45521 5.54464,4.8292 -1.34144,-0.626 -0.71544,-3.04061 1.69917,-5.90236 0.98372,-1.25201 2.05688,-2.59346 3.21947,-3.75604 6.61779,-7.15438 19.76396,-17.97537 27.0972,-21.28427 -4.65035,4.20319 -15.02419,19.13795 -15.02419,24.23545 0,0.98372 0.626,2.32517 1.60973,3.48775 0.8943,1.07316 1.87802,1.87803 2.77232,1.87803 5.36578,0 19.94282,-14.7559 27.72321,-23.25172 0.26829,-0.26829 -0.17886,-0.98373 -0.71544,-0.53658 -5.7235,5.36578 -18.51195,17.61765 -24.14602,19.13795 0.17886,-4.20319 14.04046,-23.07286 16.27621,-24.86145 z"
       style="font-style:normal;font-variant:normal;font-weight:normal;font-stretch:normal;font-family:Blacksword;-inkscape-font-specification:Blacksword;fill:#414048;fill-opacity:1;stroke-width:2.06908"
       id="path848" />
    <path
       d="m 628.51746,143.89779 c -4.91863,9.30069 -8.22753,18.78023 -8.22753,25.84518 0,10.28442 7.33323,14.12989 16.99164,14.12989 0.8943,0 1.87802,0 2.86175,-0.0894 5.00806,-0.35771 18.15423,-4.20319 26.82891,-11.71529 -5.27635,2.59346 -15.47134,9.12183 -25.84518,9.65841 -0.8943,0.0894 -1.7886,0.0894 -2.68289,0.0894 -7.42267,0 -12.69902,-1.96745 -12.69902,-9.65841 0,-4.29262 2.05688,-10.5527 5.18692,-16.90221 9.65841,-19.49568 32.64184,-49.45463 38.00762,-49.45463 0.53658,0 1.69917,0 2.32518,1.07316 0.17886,-2.32517 -4.56092,-7.333235 -6.97552,-7.333235 -7.24381,0 -48.4709,29.154085 -69.39745,54.552115 12.16244,-15.91848 32.46298,-43.90998 32.46298,-53.83668 0,-7.333233 -4.56091,-11.625859 -13.05673,-11.625859 -26.65006,0 -72.16977,34.430439 -72.16977,48.828619 0,2.68289 1.78859,4.91863 4.56091,4.91863 2.14631,0 7.5121,-2.14631 7.5121,-2.95118 -0.8943,0.26829 -3.48776,0.71544 -4.38206,0.71544 -0.80487,0 -1.69916,-0.53658 -1.69916,-1.60974 0,-5.63407 41.04823,-47.666027 66.17798,-47.666027 3.3089,0 7.51209,0.715438 7.51209,4.918634 0,12.699013 -45.43029,66.088553 -45.43029,77.535553 0,1.69916 1.34145,3.3089 2.95118,3.3089 1.69917,0 6.43894,-1.43088 8.76411,-4.38206 0.35772,-0.35772 -5.00806,2.50403 -5.00806,1.34145 0,-5.18692 31.74754,-41.49538 67.96657,-62.3325 -7.2438,7.86981 -16.2762,20.65826 -22.53628,32.64184 z"
       style="font-style:normal;font-variant:normal;font-weight:normal;font-stretch:normal;font-family:Blacksword;-inkscape-font-specification:Blacksword;fill:#414048;fill-opacity:1;stroke-width:2.06908"
       id="path850" />
    <path
       d="m 666.31826,155.88137 c -0.44715,1.34144 -0.98373,2.95118 -0.98373,3.84547 0,1.60974 1.7886,3.66662 3.21947,4.38206 0.44715,0.35772 0.98373,0.53658 1.43088,0.53658 5.36578,0 19.94282,-14.93476 27.7232,-23.43058 0.26829,-0.26829 -0.17886,-0.98373 -0.71543,-0.53658 -5.45522,5.18692 -18.15423,17.34936 -23.7883,19.04852 0,-2.50403 3.30889,-8.85354 7.78038,-14.84533 2.95118,-3.9349 5.45521,-7.15437 6.79666,-8.58525 1.16258,-1.25201 2.32517,-2.05688 2.95118,-2.05688 0.80486,0.0894 1.07315,0.53658 1.07315,0.17886 0,-2.23574 -3.39832,-5.7235 -5.54464,-5.7235 -0.35772,0 -0.80487,0.0894 -1.25201,0.44715 -5.0975,3.9349 -11.71529,11.71529 -16.36564,16.2762 -4.29262,4.11377 -13.41445,12.16244 -17.70708,13.95104 0,-2.59347 4.47148,-10.37385 9.0324,-16.36564 3.04061,-3.93491 6.79666,-8.58525 8.1381,-8.40639 0.80487,0.0894 1.16259,0.53658 1.16259,0.17886 0,-2.32517 -3.48776,-5.81293 -5.63407,-5.81293 -0.26829,0 -0.80487,0.0894 -1.25202,0.53657 -2.23574,1.7886 -5.99179,6.08122 -9.12183,10.46328 -5.09749,7.06495 -10.01612,16.09735 -10.01612,19.94282 0,2.14632 2.77232,4.56092 4.20319,4.56092 0,0 0.53658,0 0.71544,0 5.36578,-1.07316 17.34936,-13.95103 26.38176,-23.16229 -3.3089,4.11376 -6.70723,10.46327 -8.22753,14.57704 z"
       style="font-style:normal;font-variant:normal;font-weight:normal;font-stretch:normal;font-family:Blacksword;-inkscape-font-specification:Blacksword;fill:#414048;fill-opacity:1;stroke-width:2.06908"
       id="path852" />
    <path
       d="m 696.77048,140.23117 c -3.57719,5.09749 -7.60153,11.26814 -9.83727,16.36563 -1.07316,2.05689 -1.5203,3.75605 -1.34145,4.56092 0.62601,2.50403 2.77233,5.27635 5.36579,4.65034 -1.96746,-0.89429 3.39833,-8.76411 7.95924,-13.68274 6.08122,-6.70723 10.28442,-10.28442 18.51195,-15.11362 -2.32517,2.68289 -5.18692,7.86981 -5.18692,10.37385 0,1.07315 2.68289,4.20319 4.29262,4.20319 6.17065,0 16.90222,-10.01613 18.51195,-12.16244 -0.0894,-0.17886 -0.62601,-0.0894 -0.71544,0 -5.54464,4.91864 -11.71529,8.94297 -16.00791,9.30069 2.95118,-6.97552 10.37384,-13.50388 12.3413,-15.56077 0.626,-0.71543 -3.04061,-4.56091 -4.02434,-4.47148 -1.87803,0.17886 -4.56092,1.69916 -8.04867,4.20319 -7.69096,5.54465 -16.63393,13.05674 -21.3737,19.22739 1.87802,-3.3089 5.00806,-7.5121 7.42266,-10.73156 2.68289,-3.57719 5.81293,-7.06495 7.15438,-6.97552 0.71544,0.0894 0.98372,0.53658 0.98372,0.17886 0,-2.23574 -3.39832,-5.7235 -5.54464,-5.7235 -0.35772,0 -0.71543,0.0894 -1.25201,0.44715 -2.23575,1.78859 -6.08122,6.3495 -9.21126,10.91042 z"
       style="font-style:normal;font-variant:normal;font-weight:normal;font-stretch:normal;font-family:Blacksword;-inkscape-font-specification:Blacksword;fill:#414048;fill-opacity:1;stroke-width:2.06908"
       id="path854" />
    <path
       d="m 728.54037,142.46691 c -0.35772,0.98373 -0.0894,2.32517 0.26829,3.75605 -0.89429,1.78859 -1.87802,3.57719 -2.68289,5.36578 -2.86175,5.81293 -2.86175,8.76411 -2.68289,9.47955 0.71544,1.43088 2.50403,3.3089 3.13004,3.57719 0.8943,0.53658 1.87802,0.8943 2.95118,0.44715 -4.02434,-0.44715 0.8943,-7.33324 3.04061,-11.35758 6.08122,10.46328 18.15423,21.55256 29.69066,21.55256 4.29263,0 8.49582,-1.5203 12.25187,-5.09749 0.44715,-0.44715 -0.26829,-0.53658 -0.53658,-0.26829 -2.95118,2.23574 -6.08122,3.21947 -9.21126,3.21947 -11.71529,0 -23.52001,-13.68274 -27.36549,-23.60944 9.9267,0.8943 28.17036,-10.64214 28.17036,-17.25993 0,-1.87803 -2.32517,-5.63408 -4.29263,-5.63408 -4.38205,0 -15.11362,8.31697 -22.17856,15.82906 4.73977,-7.60152 11.447,-17.79651 16.81278,-24.59317 0,0 4.38206,-5.63407 5.36578,-6.79665 5.27636,-6.08122 8.67469,-9.47955 11.08929,-8.31697 1.60973,0.98373 -1.7886,-4.292622 -6.97552,-4.292622 -0.71544,0 -1.87802,0.447149 -3.39833,1.609732 -2.86175,2.32518 -6.70723,6.70723 -11.26814,12.78845 -5.7235,7.60152 -12.07301,16.72335 -18.24366,27.0972 -1.69916,0.35772 -3.39833,1.07316 -3.93491,2.50403 z m 29.42238,-11.98358 c -2.6829,5.36578 -12.96731,16.90222 -20.83713,17.97537 -0.17885,-0.26829 -0.35771,-0.8943 -0.53657,-1.78859 0.89429,-1.25202 15.20305,-14.66647 21.3737,-16.18678 z"
       style="font-style:normal;font-variant:normal;font-weight:normal;font-stretch:normal;font-family:Blacksword;-inkscape-font-specification:Blacksword;fill:#414048;fill-opacity:1;stroke-width:2.06908"
       id="path856" />
    <path
       d="m 797.94199,107.58933 c 3.39833,-3.84548 6.08122,-5.7235 7.86982,-4.82921 1.69916,0.98373 -1.7886,-4.292622 -6.79666,-4.292622 -0.71544,0 -1.96745,0.536578 -3.39833,1.609732 -3.84548,3.21947 -8.40639,8.67468 -10.82099,11.98358 -8.40639,11.17872 -20.56883,28.70694 -25.30861,39.52793 -2.68289,5.90236 -2.86175,8.76411 -2.59346,9.47955 0.62601,1.43088 2.59346,3.3089 3.21947,3.57719 0.8943,0.53658 1.87802,0.8943 2.95118,0.44715 -2.05688,-0.26829 -2.23574,-1.52031 -1.43088,-3.3089 0.8943,-2.14632 2.86175,-4.82921 5.54465,-7.69096 0,0 3.57718,-3.75604 4.47148,-4.56091 6.43894,-6.08122 14.04046,-11.53643 19.31682,-13.95104 -4.65035,4.2032 -14.21933,18.51195 -14.21933,23.60945 0,1.60973 2.05689,4.73977 3.84548,5.36578 0.62601,0.17886 0.98373,0.0894 1.34145,0 0.98372,-0.26829 2.32517,-0.8943 3.04061,-1.34145 6.70722,-3.9349 17.34936,-15.11362 23.7883,-21.9997 0.26829,-0.26829 -0.17886,-0.98373 -0.80487,-0.53658 -5.63407,5.27635 -18.33309,17.70708 -23.87773,19.22738 0.26829,-4.20319 13.95103,-23.07286 16.27621,-24.86145 1.07315,-0.98373 -1.7886,-5.81293 -3.84548,-5.81293 -3.04061,0 -18.42252,10.73156 -28.61751,21.55255 7.24381,-14.39818 21.28427,-33.26785 30.04838,-43.19454 z"
       style="font-style:normal;font-variant:normal;font-weight:normal;font-stretch:normal;font-family:Blacksword;-inkscape-font-specification:Blacksword;fill:#414048;fill-opacity:1;stroke-width:2.06908"
       id="path858" />
    <path
       d="m 835.6199,130.48333 c 0.35772,0 0.62601,0 0.17886,-0.26829 -0.62601,-0.53658 -2.05688,-1.5203 -5.45521,-1.5203 -14.1299,0 -33.715,14.57704 -33.715,29.15408 0,3.39833 2.68289,6.79666 6.79666,7.06495 9.47955,0.53658 27.99149,-12.3413 30.4061,-24.23545 0.44714,0.17886 1.34144,0.35772 2.68289,0.35772 1.43087,0 3.3089,-0.17886 5.27635,-0.80487 4.38205,-1.43088 7.95924,-4.38206 8.40639,-5.63407 -0.98373,-0.0894 -4.29262,3.39833 -10.28441,3.9349 -3.57719,0.26829 -5.72351,-1.78859 -7.42267,-4.56091 -0.17886,-0.26829 -1.16259,-0.98373 -2.05688,-0.8943 -1.16259,0.0894 -3.84548,2.77232 -4.11377,3.66662 -0.35772,0.8943 0.53658,3.57719 0.98373,4.38206 -5.99179,9.12183 -18.78024,23.43058 -23.7883,21.3737 -5.00807,-2.14632 13.68274,-32.28413 29.86952,-32.28413 0.62601,0 1.34144,0.17886 2.23574,0.26829 z"
       style="font-style:normal;font-variant:normal;font-weight:normal;font-stretch:normal;font-family:Blacksword;-inkscape-font-specification:Blacksword;fill:#414048;fill-opacity:1;stroke-width:2.06908"
       id="path860" />
    <path
       d="m 846.93134,130.75162 c -10.91043,17.08107 -15.02419,25.75576 -15.02419,28.43865 0,0.98372 0.17886,1.16258 0.26829,1.34144 0.53658,1.34145 2.50403,3.21947 3.21947,3.57719 0.80486,0.44715 1.69916,0.80487 2.86175,0.35772 5.36578,-1.96745 20.92655,-18.24366 25.3086,-23.25172 0.26829,-0.26829 -0.0894,-0.98373 -0.626,-0.53658 -5.27636,4.8292 -20.12169,19.40624 -23.96717,18.95909 2.14632,-5.7235 8.85355,-17.08107 16.63393,-28.88579 4.47148,-6.52837 8.1381,-11.80472 11.98358,-16.72335 3.93491,-4.82921 9.74784,-13.2356 12.87788,-11.80472 1.69916,0.98372 -1.87803,-4.2032 -6.88609,-3.934911 -0.80487,0 -1.96745,0.715437 -3.3089,1.788591 -2.23574,1.7886 -4.73977,4.65035 -7.42266,8.13811 -4.65035,6.08122 -10.37385,13.8616 -15.91849,22.53628 z"
       style="font-style:normal;font-variant:normal;font-weight:normal;font-stretch:normal;font-family:Blacksword;-inkscape-font-specification:Blacksword;fill:#414048;fill-opacity:1;stroke-width:2.06908"
       id="path862" />
    <path
       d="m 856.78955,164.64548 c 5.54464,-0.44715 19.76396,-15.02419 27.54435,-23.43058 0.26828,-0.26829 -0.17886,-0.98373 -0.80487,-0.53658 -5.45521,5.27635 -18.51195,17.70708 -23.96716,19.13795 1.07315,-3.66661 13.32502,-24.05659 16.99164,-23.69887 0.71544,0.0894 1.16259,0.53658 1.16259,0.17886 0,-2.23574 -3.57719,-5.81293 -5.63407,-5.81293 -0.35772,0 -0.8943,0.0894 -1.34145,0.53658 -5.7235,4.56091 -18.69081,24.05659 -18.69081,29.24351 0,1.60974 2.23575,3.84548 3.66662,4.29263 0.44715,0.0894 0.71544,0.0894 1.07316,0.0894 z m 23.60944,-47.84489 c -2.32517,0.71543 -5.7235,6.52837 -5.63407,9.12183 0.0894,1.60973 1.96745,3.48776 3.21947,1.87802 1.07315,-1.5203 5.18692,-5.18692 6.70722,-5.81293 0.98373,-0.44715 1.69917,-0.0894 1.87803,-0.0894 0.35772,0 -0.17886,-1.34145 -0.98373,-2.23574 -1.16258,-1.34145 -3.13004,-3.13004 -5.18692,-2.86175 z"
       style="font-style:normal;font-variant:normal;font-weight:normal;font-stretch:normal;font-family:Blacksword;-inkscape-font-specification:Blacksword;fill:#414048;fill-opacity:1;stroke-width:2.06908"
       id="path864" />
    <path
       d="m 905.13612,132.27193 c -0.17885,1.78859 -6.17064,8.04867 -6.43893,8.04867 -0.0894,0 0.0894,0.35772 0.17886,0.35772 2.4146,0 8.04867,-5.36578 8.1381,-6.6178 0.26829,-2.59346 -0.8943,-6.70723 -3.39833,-6.70723 -7.86981,0 -20.74769,6.70723 -22.17857,13.50389 -0.80486,3.9349 4.47149,7.15437 5.45522,8.40639 -3.13004,1.25202 -16.27621,8.76411 -16.5445,12.60959 0.44715,1.96745 1.43088,3.57719 3.39833,3.57719 5.81293,0 17.61765,-4.73978 18.86967,-10.55271 0.26829,-1.87802 -1.96746,-4.47148 -3.13004,-5.36578 9.74783,-5.81293 27.45492,-10.46328 26.65005,-10.73157 0,-0.26829 -0.35772,-0.44714 -0.53658,-0.44714 -1.16259,0 -12.60959,1.96745 -26.91834,10.01612 -0.8943,-0.80487 -3.04061,-2.23574 -2.68289,-3.75605 1.16258,-4.20319 15.02419,-12.69901 19.13795,-12.34129 z m -17.88594,18.51194 c 0,3.39833 -11.08928,9.12183 -14.57704,10.10556 2.59346,-2.59346 9.21126,-7.06495 14.57704,-10.10556 z"
       style="font-style:normal;font-variant:normal;font-weight:normal;font-stretch:normal;font-family:Blacksword;-inkscape-font-specification:Blacksword;fill:#414048;fill-opacity:1;stroke-width:2.06908"
       id="path866" />
  </g>
</svg>
